<svg width="311" height="86" viewBox="0 0 311 86" fill="none" xmlns="http://www.w3.org/2000/svg">
<path d="M34.1945 27.0962H0V31.5776H53.1544V27.0962H34.1945Z" fill="#005674"/>
<path d="M53.676 38.0459H19.4814V42.5273H72.6358V38.0459H53.676Z" fill="#005674"/>
<path d="M89.2648 39.2371L85.5487 38.7094C88.0041 21.9885 76.1671 6.42125 59.1656 4.00817C42.1622 1.59333 26.3337 13.2349 23.8801 29.9559L20.1658 29.43C22.9144 10.6934 40.651 -2.34992 59.7003 0.355125C78.7513 3.05841 92.0135 20.5005 89.2648 39.2371Z" fill="#005674"/>
<path d="M34.1945 48.3896H0V52.8711H53.1544V48.3896H34.1945Z" fill="#005674"/>
<path d="M77.049 76.8387C82.5445 76.8387 88.9718 74.8706 88.9718 68.5952C88.9718 62.413 82.777 60.4431 78.1202 59.022C74.1627 57.8313 71.4605 56.5491 71.4605 53.297C71.4605 51.5119 72.6712 49.3591 76.1638 49.3591C79.7029 49.3591 83.2903 51.5119 84.8264 55.8174C85.1054 56.5948 85.2914 56.8252 85.8511 56.8252C87.9936 56.8252 87.8541 52.7483 86.5021 49.4963C84.408 48.1684 80.5416 47.2063 76.9095 47.2063C70.6701 47.2063 66.0115 50.2297 66.0115 55.4498C66.0115 60.5345 70.3428 63.3275 75.2804 64.8401C79.3774 66.0765 83.0095 67.1758 83.0095 70.565C83.0095 73.0836 81.4268 74.6859 78.0737 74.6859C74.1162 74.6859 70.3893 72.5349 68.7601 68.0921C68.4812 67.313 68.2934 67.0843 67.7354 67.0843C65.593 67.0843 65.7325 71.1595 67.0827 74.4115C69.1786 75.7394 73.045 76.8387 77.049 76.8387Z" fill="#005674"/>
<path d="M112.72 72.4914L106.063 63.0097L109.881 59.7576C111.603 58.2925 112.72 57.4677 115.051 57.2847V55.7282H105.41V57.2847C107.738 57.4677 108.203 58.7498 107.227 59.5747L101.452 64.5205C100.707 65.1624 99.8678 64.7052 99.8678 63.467V48.0334C99.8678 46.797 99.1703 46.2007 97.8184 46.4294L91.2999 47.6201V49.1784C93.3941 48.9955 94.2793 49.5442 94.2793 51.6513V72.0323C94.2793 74.0022 93.4888 74.6424 91.2999 74.8271V76.3836H102.802V74.8271C100.66 74.6424 99.8678 74.0022 99.8678 72.0323V69.7424C99.8678 68.2773 100.381 67.8182 101.406 66.9494C102.01 66.4446 102.382 66.8562 102.849 67.5439L106.342 72.72C107.039 73.7278 107.134 74.6424 105.456 74.8271V76.3836H116.912V74.8271C114.723 74.6424 113.838 74.0479 112.72 72.4914Z" fill="#005674"/>
<path d="M123.558 85.4509C127.051 85.4509 128.773 83.5725 130.543 79.084L137.668 61.1758C138.646 58.7487 139.345 57.9713 142.139 57.2836V55.7271H133.057V57.2836C135.899 57.9713 136.736 58.8401 134.082 65.6186L132.079 70.749C131.707 71.7111 131.149 71.7111 130.776 70.749L126.865 61.1758C125.84 58.6572 125.886 57.9713 128.354 57.2836V55.7271H117.363V57.2836C119.366 57.9713 120.158 58.7487 121.137 61.1758L127.004 75.9252C127.75 77.7561 128.075 79.4973 127.329 81.4215C126.911 82.5665 126.165 83.5725 125.234 83.5725C123.045 83.5725 124.862 79.3601 121.416 79.3601C119.552 79.3601 118.669 80.6423 118.669 82.0159C118.669 84.0773 120.67 85.4509 123.558 85.4509Z" fill="#005674"/>
<path d="M157.937 73.4943C154.491 73.4943 151.79 71.6177 150.626 68.3199C150.347 67.2664 150.533 66.5787 151.372 66.533L156.494 66.35C161.431 66.1671 164.504 65.6623 164.504 62.0445C164.504 57.9693 160.593 55.3118 155.609 55.3118C149.788 55.3118 144.013 58.8839 144.013 66.0757C144.013 73.037 149.416 76.6549 155.237 76.6549C160.407 76.6549 163.386 73.7705 164.271 72.075L163.153 71.1129C161.524 73.037 159.707 73.4943 157.937 73.4943ZM154.911 57.053C157.704 57.053 159.289 59.2515 159.289 61.5872C159.289 63.6942 158.078 64.9307 154.072 64.9307H151.604C150.394 64.9307 149.927 64.3802 149.974 63.0066C150.208 59.5259 151.744 57.053 154.911 57.053Z" fill="#005674"/>
<path d="M188.804 76.3767H192.204C192.204 75.5061 192.576 73.9496 193.415 71.8425L198.397 59.202L205.568 76.3767H208.968C208.968 75.5061 209.341 73.9496 210.178 71.8425L217.351 53.7057C218.33 51.2786 219.399 49.9489 222.008 49.4459V47.9351H211.67V49.4459C214.649 49.8574 215.674 51.0939 214.789 53.3381L209.248 67.5827C208.921 68.3619 208.642 68.3619 208.317 67.5827L202.403 53.0637C201.61 51.1396 201.61 49.8574 204.404 49.4459V47.9351H192.204V49.4001C194.298 49.8574 194.951 50.9567 196.068 53.5685C197 55.8128 196.394 57.5522 195.462 59.8879L192.483 67.5827C192.157 68.3619 191.877 68.3619 191.551 67.5827L185.637 53.0637C184.845 51.1396 184.845 49.8574 187.64 49.4459V47.9351H175.438V49.4001C177.813 49.9032 178.371 51.2786 179.816 54.805L188.804 76.3767Z" fill="#005674"/>
<path d="M230.484 76.6539C233.791 76.6539 236.212 74.9602 237.516 73.3562C237.934 72.8531 238.308 72.9446 238.354 73.4933C238.54 75.1431 239.751 76.6082 242.359 76.6082C243.709 76.6082 245.386 76.2424 246.223 75.6004V74.0438C244.64 74.364 243.848 73.8152 243.848 72.3026V63.6475C243.848 57.2807 241.427 55.3108 236.119 55.3108C230.996 55.3108 225.732 57.2349 225.732 60.5327C225.732 61.9063 226.618 63.097 228.388 63.097C229.924 63.097 231.368 62.2264 231.368 60.304C231.368 58.4256 232.113 57.0063 234.349 57.0063C237.096 57.0063 238.26 58.7457 238.26 62.0435V62.6397C238.26 63.8762 237.888 64.1963 236.584 64.3792C227.503 65.6614 224.336 67.9056 224.336 71.6167C224.336 75.1888 227.27 76.6539 230.484 76.6539ZM233.277 73.5866C231.042 73.5866 230.064 72.1654 230.064 70.4717C230.064 68.822 231.228 66.4405 236.398 65.9832C237.888 65.846 238.26 66.3033 238.26 67.3569V68.7305C238.26 71.4338 236.166 73.5866 233.277 73.5866Z" fill="#005674"/>
<path d="M254.699 76.6096C256.095 76.6096 257.724 76.2438 259.123 75.3732V73.8166C256.98 74.3654 256.188 73.8166 256.188 72.304V48.0307C256.188 46.7943 255.489 46.1981 254.139 46.4267L247.619 47.6174V49.1757C249.714 48.9928 250.6 49.5415 250.6 51.6486V72.7174C250.6 75.2817 252.089 76.6096 254.699 76.6096Z" fill="#005674"/>
<path d="M267.37 76.6123C268.767 76.6123 270.396 76.2465 271.794 75.3758V73.8193C269.652 74.368 268.86 73.8193 268.86 72.3067V48.0334C268.86 46.797 268.16 46.2007 266.81 46.4294L260.29 47.6201V49.1784C262.386 48.9955 263.271 49.5442 263.271 51.6513V72.72C263.271 75.2844 264.761 76.6123 267.37 76.6123Z" fill="#005674"/>
<path d="M287.798 73.4941C284.352 73.4941 281.651 71.6174 280.487 68.3197C280.208 67.2661 280.394 66.5784 281.233 66.5327L286.355 66.3498C291.292 66.1669 294.365 65.6621 294.365 62.0442C294.365 57.9691 290.454 55.3115 285.47 55.3115C279.649 55.3115 273.874 58.8837 273.874 66.0754C273.874 73.0368 279.277 76.6547 285.098 76.6547C290.268 76.6547 293.247 73.7702 294.132 72.0747L293.014 71.1127C291.385 73.0368 289.568 73.4941 287.798 73.4941ZM284.772 57.0527C287.565 57.0527 289.15 59.2513 289.15 61.5869C289.15 63.694 287.939 64.9304 283.933 64.9304H281.465C280.255 64.9304 279.788 64.3799 279.835 63.0063C280.069 59.5256 281.605 57.0527 284.772 57.0527Z" fill="#005674"/>
<path d="M306.25 76.6104C308.765 76.6104 310.208 75.7855 311 75.0996L310.208 73.6802C309.557 74.1833 308.672 74.4119 307.786 74.4119C305.878 74.4119 305.458 72.6725 305.458 70.6111V58.8394C305.458 57.8774 305.878 57.603 306.715 57.603H310.814V55.7263H306.715C305.878 55.7263 305.458 55.4502 305.458 54.4881V50.7788H303.269C302.479 54.0308 300.755 55.7263 296.704 56.2751V57.603H298.612C299.498 57.603 299.87 57.8774 299.87 58.8394V69.6033C299.87 74.5034 302.058 76.6104 306.25 76.6104Z" fill="#005674"/>
</svg>
