<svg width="30" height="44" viewBox="0 0 30 44" fill="none" xmlns="http://www.w3.org/2000/svg">
<g id="10984752681553073910 2" clip-path="url(#clip0_45_830)">
<g id="Icons">
<g id="Outlined">
<g id="Hardware">
<g id="Outlined-/-Hardware-/-phone_iphone">
<g id="Group">
<path id="&#240;&#159;&#148;&#185;-Icon-Color" fill-rule="evenodd" clip-rule="evenodd" d="M24.2308 0H5.76923C2.58462 0 0 2.24 0 5V39C0 41.76 2.58462 44 5.76923 44H24.2308C27.4154 44 30 41.76 30 39V5C30 2.24 27.4154 0 24.2308 0ZM15 42C13.0846 42 11.5385 40.66 11.5385 39C11.5385 37.34 13.0846 36 15 36C16.9154 36 18.4615 37.34 18.4615 39C18.4615 40.66 16.9154 42 15 42ZM25.3846 34H4.61538V6H25.3846V34Z" fill="white"/>
</g>
</g>
</g>
</g>
</g>
</g>
<defs>
<clipPath id="clip0_45_830">
<rect width="30" height="44" fill="white"/>
</clipPath>
</defs>
</svg>
