<svg width="40" height="40" viewBox="0 0 40 40" fill="none" xmlns="http://www.w3.org/2000/svg">
<g id="11197983181642744712 1">
<g id="Address_location">
<path id="Vector" d="M25.6185 26.8555L21.7671 32.1332C21.564 32.4114 21.2982 32.6377 20.9912 32.7938C20.6841 32.9498 20.3446 33.0312 20.0001 33.0312C19.6557 33.0312 19.3162 32.9498 19.0091 32.7938C18.7021 32.6377 18.4362 32.4114 18.2332 32.1332L14.3817 26.8555C9.63421 27.5414 6.32812 29.0685 6.32812 30.8437C6.32812 33.26 12.4492 35.2187 20 35.2187C27.5508 35.2187 33.6719 33.26 33.6719 30.8437C33.6719 29.0686 30.366 27.5414 25.6185 26.8555Z" fill="white"/>
<path id="Vector_2" d="M20 30.8437L27.2086 20.9653C28.1796 19.6346 28.7634 18.0611 28.8952 16.4191C29.027 14.777 28.7017 13.1306 27.9554 11.662C27.209 10.1934 26.0708 8.96014 24.6666 8.09869C23.2625 7.23723 21.6473 6.78125 20 6.78125C18.3527 6.78125 16.7375 7.23723 15.3334 8.09869C13.9292 8.96014 12.7909 10.1934 12.0446 11.662C11.2983 13.1306 10.973 14.777 11.1048 16.4191C11.2366 18.0611 11.8204 19.6346 12.7914 20.9653L20 30.8437ZM20 11.7442C20.7834 11.7442 21.5492 11.9765 22.2006 12.4118C22.8519 12.847 23.3596 13.4656 23.6594 14.1894C23.9592 14.9132 24.0377 15.7096 23.8848 16.4779C23.732 17.2463 23.3547 17.952 22.8008 18.506C22.2468 19.0599 21.5411 19.4372 20.7727 19.59C20.0044 19.7428 19.208 19.6644 18.4842 19.3646C17.7604 19.0648 17.1418 18.5571 16.7066 17.9058C16.2714 17.2544 16.0391 16.4886 16.0391 15.7052C16.0391 14.6547 16.4564 13.6472 17.1992 12.9044C17.942 12.1616 18.9495 11.7442 20 11.7442Z" fill="white"/>
</g>
</g>
</svg>
