<svg width="50" height="50" viewBox="0 0 50 50" fill="none" xmlns="http://www.w3.org/2000/svg">
<g id="Mission icon" clip-path="url(#clip0_31_255)">
<path id="Vector" fill-rule="evenodd" clip-rule="evenodd" d="M15.9051 39.4552C15.7293 39.4552 15.5536 39.3966 15.4071 39.2502L10.7205 34.5636C10.5448 34.3878 10.4862 34.1535 10.5448 33.9192C12.3901 27.2701 15.8172 21.3825 18.3655 17.6333C21.1189 13.5618 23.4036 11.0721 23.4915 10.9842C23.5208 10.9549 23.5208 10.9549 23.5208 10.9549C26.157 8.2894 28.9689 6.06327 31.8688 4.3351L45.6356 18.1312C43.9074 21.0018 41.6813 23.8137 39.0158 26.4499C39.0158 26.4499 39.0158 26.4499 38.9865 26.4792C38.8986 26.5671 36.4089 28.8518 32.3374 31.6052C28.5881 34.1535 22.7006 37.5806 16.0515 39.4259C16.0222 39.4552 15.9637 39.4552 15.9051 39.4552ZM31.2829 22.6421C30.287 22.6421 29.2618 22.2613 28.5003 21.4997C26.9771 19.9473 26.9771 17.4575 28.5003 15.9344C30.0527 14.4113 32.5425 14.4113 34.0656 15.9344C35.5887 17.4575 35.5887 19.9473 34.0656 21.4997C33.304 22.2613 32.2788 22.6421 31.2829 22.6421ZM31.2829 16.1687C30.6385 16.1687 29.9648 16.4031 29.4669 16.901C28.471 17.8969 28.471 19.5372 29.4669 20.5331C30.4628 21.529 32.1031 21.529 33.099 20.5331C34.0949 19.5372 34.0949 17.8969 33.099 16.901C32.601 16.4031 31.9273 16.1687 31.2829 16.1687ZM24.8975 25.8055C24.7217 25.8055 24.546 25.7176 24.3995 25.6005C24.1359 25.3369 24.1359 24.8975 24.3995 24.6339L26.5671 22.4663C26.8307 22.2027 27.27 22.2027 27.5337 22.4663C27.7973 22.7299 27.7973 23.1693 27.5337 23.4329L25.3661 25.6005C25.249 25.7176 25.0732 25.8055 24.8975 25.8055ZM20.5917 30.082C20.4159 30.082 20.2402 30.0234 20.0937 29.877C19.8301 29.6134 19.8301 29.174 20.123 28.9104L22.2613 26.86C22.5249 26.5964 22.9642 26.5964 23.2279 26.8893C23.4915 27.1529 23.4915 27.5923 23.1986 27.8559L21.0603 29.9063C20.9432 30.0234 20.7674 30.082 20.5917 30.082ZM16.2859 34.3878C16.1101 34.3878 15.9344 34.3292 15.7879 34.1828C15.5243 33.8899 15.5536 33.4798 15.8172 33.2162L17.9555 31.1658C18.2484 30.9022 18.6584 30.9022 18.9221 31.1658C19.1857 31.4587 19.1857 31.8688 18.9221 32.1324L16.7545 34.1828C16.6374 34.3292 16.4616 34.3878 16.2859 34.3878ZM35.4423 15.3486C35.2665 15.3486 35.0908 15.29 34.9443 15.1435C34.6807 14.8799 34.6807 14.4405 34.9443 14.1769L37.1119 12.0387C37.3755 11.775 37.8149 11.775 38.0785 12.0387C38.3421 12.3023 38.3421 12.7417 38.0785 13.0053L35.9109 15.1435C35.7938 15.29 35.618 15.3486 35.4423 15.3486ZM33.099 3.63211H33.1283C35.7938 2.16755 38.5471 1.14236 41.3005 0.556537C46.0457 -0.468653 49.1212 0.175752 49.2384 0.205043C49.502 0.263626 49.7071 0.468664 49.7657 0.732284C49.7949 0.849449 50.4394 3.92502 49.4142 8.67019C48.8283 11.4236 47.8031 14.1769 46.3386 16.8424V16.901L33.099 3.63211Z" fill="white"/>
<g id="_640623272">
<path id="Vector_2" fill-rule="evenodd" clip-rule="evenodd" d="M18.5413 50C18.3363 50 18.1605 49.9121 18.0141 49.7657C17.809 49.5314 17.809 49.2092 17.9555 48.9455C17.9848 48.9455 18.7464 47.7446 19.0978 45.8407C19.4493 43.9075 19.2736 41.9742 18.5706 40.0703C22.2027 38.8694 25.7762 37.1998 29.1447 35.2373C29.1447 36.3796 29.0275 37.9028 28.5296 39.5724C27.6216 42.7651 25.1904 47.1295 18.8049 49.9414C18.7171 50 18.6292 50 18.5413 50Z" fill="white"/>
<path id="Vector_3" fill-rule="evenodd" clip-rule="evenodd" d="M9.90041 31.4587C7.99649 30.785 6.06327 30.6093 4.15934 30.9901C2.25542 31.3415 1.05448 32.1324 1.05448 32.1324C0.790861 32.3082 0.468658 32.2789 0.234329 32.0738C0 31.8981 -0.0585823 31.5759 0.0585823 31.283C2.87053 24.8389 7.26421 22.3785 10.4277 21.4704C12.0972 20.9725 13.5911 20.8553 14.7335 20.8553C12.7709 24.2238 11.1013 27.7973 9.90041 31.4587Z" fill="white"/>
</g>
<path id="Vector_4" fill-rule="evenodd" clip-rule="evenodd" d="M12.5952 40.8319C12.4195 40.8319 12.2437 40.7733 12.0973 40.6268L9.37319 37.9028C9.10957 37.6392 9.10957 37.1998 9.37319 36.9362L10.2519 36.0281L13.9719 39.7481L13.0639 40.6268C12.9467 40.7733 12.771 40.8319 12.5952 40.8319Z" fill="white"/>
<path id="Vector_5" fill-rule="evenodd" clip-rule="evenodd" d="M5.9461 44.7276C5.77035 44.7276 5.5946 44.669 5.47744 44.5226C5.21382 44.2589 5.21382 43.8196 5.47744 43.556L8.78734 40.2461C9.05096 39.9824 9.49033 39.9824 9.75395 40.2461C10.0176 40.5097 10.0176 40.949 9.75395 41.2127L6.44405 44.5226C6.29759 44.669 6.12184 44.7276 5.9461 44.7276Z" fill="white"/>
<path id="Vector_6" fill-rule="evenodd" clip-rule="evenodd" d="M7.02989 49.4142C6.85415 49.4142 6.6784 49.3556 6.53194 49.2091C6.26832 48.9455 6.26832 48.5062 6.53194 48.2425L9.87114 44.9326C10.1348 44.669 10.5741 44.669 10.8377 44.9326C11.1014 45.1963 11.1014 45.6356 10.8377 45.8992L7.49855 49.2091C7.38139 49.3556 7.20564 49.4142 7.02989 49.4142Z" fill="white"/>
<path id="Vector_7" fill-rule="evenodd" clip-rule="evenodd" d="M1.25951 43.6731C1.08377 43.6731 0.90802 43.5852 0.790855 43.4681C0.527235 43.2045 0.527235 42.7651 0.790855 42.5015L4.10076 39.1623C4.36438 38.8987 4.80374 38.8987 5.06736 39.1623C5.33098 39.4259 5.33098 39.8653 5.06736 40.1289L1.75746 43.4681C1.61101 43.5852 1.43526 43.6731 1.25951 43.6731Z" fill="white"/>
</g>
<defs>
<clipPath id="clip0_31_255">
<rect width="50" height="50" fill="white"/>
</clipPath>
</defs>
</svg>
