<svg width="257" height="39" viewBox="0 0 257 39" fill="none" xmlns="http://www.w3.org/2000/svg">
<g id="Frame 2">
<g id="Group">
<g id="Group_2">
<g id="Group_3">
<path id="Vector" d="M69.8966 5.81194C70.3547 6.08226 70.7076 6.43519 70.9479 6.8632C71.1881 7.29496 71.3083 7.7868 71.3083 8.33496C71.3083 8.86809 71.1806 9.36368 70.9328 9.82173C70.6813 10.2723 70.3246 10.674 69.8666 11.0232C69.4536 11.3348 68.9843 11.5751 68.4549 11.744C67.9217 11.913 67.3623 12.0031 66.7729 12.0143C66.1797 12.0143 65.6165 11.9318 65.0758 11.7741C64.5352 11.6051 64.0584 11.3611 63.6491 11.0382C63.0259 10.5689 62.6016 9.99819 62.3726 9.32614L64.6704 8.25987C64.6704 8.3725 64.7042 8.51142 64.7755 8.68037C64.8543 8.84181 64.9745 8.99574 65.1359 9.14592C65.3049 9.2961 65.5189 9.42751 65.7817 9.53639C66.0408 9.64902 66.3599 9.70159 66.7428 9.70159C67.0507 9.70159 67.321 9.6678 67.5538 9.59646C67.7941 9.51762 67.9931 9.42376 68.1545 9.31112C68.3122 9.19098 68.4324 9.05582 68.515 8.90564C68.5938 8.75546 68.6351 8.60528 68.6351 8.4551C68.6351 8.28615 68.575 8.1247 68.4549 7.97452C68.3422 7.81684 68.1695 7.68918 67.9293 7.59908C67.4862 7.4489 67.0207 7.325 66.5326 7.22363C66.052 7.11475 65.5789 6.97959 65.1209 6.81814C64.6591 6.66046 64.2348 6.4502 63.8444 6.18739C63.4539 5.92833 63.1423 5.56415 62.9133 5.09108C62.703 4.67058 62.5979 4.22755 62.5979 3.75448C62.5979 3.23637 62.718 2.72951 62.9583 2.23767C63.2061 1.74959 63.5478 1.33284 63.9795 0.991184C64.3775 0.672053 64.8281 0.428011 65.3312 0.255305C65.8418 0.0863534 66.3711 0 66.9231 0C67.4825 0 68.0194 0.0863534 68.53 0.255305C69.0406 0.416748 69.4949 0.657035 69.8966 0.976166C70.2946 1.26902 70.61 1.60692 70.8427 1.99739L68.9655 3.28893C68.7327 2.9698 68.4436 2.71449 68.0945 2.52301C67.7528 2.33529 67.3736 2.23767 66.9531 2.23767C66.3599 2.23767 65.9018 2.36908 65.5714 2.62814C65.2486 2.89095 65.0909 3.23637 65.0909 3.66438C65.0909 3.86712 65.181 4.03983 65.3612 4.19C65.5414 4.34018 65.7742 4.47535 66.067 4.59549C66.3561 4.71563 66.6828 4.82827 67.0432 4.92588C67.4036 5.01599 67.7566 5.1061 68.1095 5.19621C68.4699 5.28631 68.8078 5.38393 69.1307 5.48155C69.4498 5.58292 69.7051 5.6918 69.8966 5.81194Z" fill="#03989E"/>
</g>
</g>
</g>
<g id="Group_4">
<g id="Group_5">
<g id="Group_6">
<path id="Vector_2" d="M80.6348 5.48157L86.2515 11.8041H83.1879L79.058 7.05845L78.0668 8.07967V11.8041H75.5588V0.165222H78.0668V4.88085L82.7374 0.165222H85.9212L80.6348 5.48157Z" fill="#03989E"/>
</g>
</g>
</g>
<g id="Group_7">
<g id="Group_8">
<g id="Group_9">
<path id="Vector_3" d="M97.514 0.165222H100.518L96.3577 6.35261V11.8041H93.8797V6.35261L89.7347 0.165222H92.7383L95.1262 3.73949L97.514 0.165222Z" fill="#03989E"/>
</g>
</g>
</g>
<g id="Group_10">
<g id="Group_11">
<g id="Group_12">
<path id="Vector_4" d="M104.545 0.165222H111.829V2.43293H107.053V4.53544H111.243V6.80315H107.053V9.55143H111.829V11.8041H104.545V0.165222Z" fill="#03989E"/>
</g>
</g>
</g>
<g id="Group_13">
<g id="Group_14">
<g id="Group_15">
<path id="Vector_5" d="M128.035 0.165222V2.26773H127.164V9.71663H128.035V11.8041H123.8V9.71663H124.671V2.26773H123.8V0.165222H128.035Z" fill="#F46500"/>
</g>
</g>
</g>
<g id="Group_16">
<g id="Group_17">
<g id="Group_18">
<path id="Vector_6" d="M140.476 0.165222H142.969V11.8041H140.596L134.995 4.20505V11.8041H132.517V0.165222H134.86L140.476 7.80935V0.165222Z" fill="#F46500"/>
</g>
</g>
</g>
<g id="Group_19">
<g id="Group_20">
<g id="Group_21">
<path id="Vector_7" d="M155.413 0.165222H157.906V11.8041H155.533L149.932 4.20505V11.8041H147.454V0.165222H149.797L155.413 7.80935V0.165222Z" fill="#F46500"/>
</g>
</g>
</g>
<g id="Group_22">
<g id="Group_23">
<g id="Group_24">
<path id="Vector_8" d="M167.902 0C168.683 0 169.423 0.161443 170.125 0.480574C170.823 0.80346 171.435 1.23898 171.957 1.78713C172.475 2.32778 172.888 2.95853 173.189 3.67939C173.489 4.40026 173.639 5.17368 173.639 5.99216C173.639 6.80313 173.489 7.57655 173.189 8.30492C172.888 9.03704 172.475 9.67906 171.957 10.2272C171.435 10.7791 170.823 11.2146 170.125 11.5338C169.423 11.8529 168.683 12.0143 167.902 12.0143C167.11 12.0143 166.363 11.8529 165.665 11.5338C164.962 11.2146 164.351 10.7791 163.832 10.2272C163.322 9.67906 162.916 9.03704 162.616 8.30492C162.316 7.57655 162.165 6.80313 162.165 5.99216C162.165 5.17368 162.316 4.40026 162.616 3.67939C162.916 2.95853 163.322 2.32778 163.832 1.78713C164.351 1.23898 164.962 0.80346 165.665 0.480574C166.363 0.161443 167.11 0 167.902 0ZM167.902 9.53639C168.342 9.53639 168.758 9.44628 169.149 9.26607C169.547 9.07834 169.892 8.82304 170.185 8.50015C170.485 8.18102 170.718 7.80557 170.891 7.37381C171.06 6.9458 171.146 6.48399 171.146 5.99216C171.146 5.50407 171.06 5.04227 170.891 4.61051C170.718 4.1825 170.485 3.80705 170.185 3.48416C169.892 3.15377 169.547 2.89846 169.149 2.71825C168.758 2.53052 168.342 2.43291 167.902 2.43291C167.452 2.43291 167.024 2.53052 166.626 2.71825C166.235 2.89846 165.89 3.15377 165.589 3.48416C165.297 3.80705 165.068 4.1825 164.899 4.61051C164.726 5.04227 164.643 5.50407 164.643 5.99216C164.643 6.48399 164.726 6.9458 164.899 7.37381C165.068 7.80557 165.297 8.18102 165.589 8.50015C165.89 8.82304 166.235 9.07834 166.626 9.26607C167.024 9.44628 167.452 9.53639 167.902 9.53639Z" fill="#F46500"/>
</g>
</g>
</g>
<g id="Group_25">
<g id="Group_26">
<g id="Group_27">
<path id="Vector_9" d="M187.318 0.165222H190.022L185.111 11.8041H182.377L177.482 0.165222H180.185L183.744 8.86061L187.318 0.165222Z" fill="#F46500"/>
</g>
</g>
</g>
<g id="Group_28">
<g id="Group_29">
<g id="Group_30">
<path id="Vector_10" d="M201.25 0.165222L206.101 11.8041H203.412L202.361 9.31114H197.42L196.384 11.8041H193.681L198.547 0.165222H201.25ZM201.43 7.04344L199.898 3.37906L198.381 7.04344H201.43Z" fill="#F46500"/>
</g>
</g>
</g>
<g id="Group_31">
<g id="Group_32">
<g id="Group_33">
<path id="Vector_11" d="M209.798 0.165222H218.223V2.43293H215.249V11.8041H212.771V2.43293H209.798V0.165222Z" fill="#F46500"/>
</g>
</g>
</g>
<g id="Group_34">
<g id="Group_35">
<g id="Group_36">
<path id="Vector_12" d="M226.554 0.165222V2.26773H225.683V9.71663H226.554V11.8041H222.319V9.71663H223.19V2.26773H222.319V0.165222H226.554Z" fill="#F46500"/>
</g>
</g>
</g>
<g id="Group_37">
<g id="Group_38">
<g id="Group_39">
<path id="Vector_13" d="M236.548 0C237.329 0 238.068 0.161443 238.77 0.480574C239.469 0.80346 240.081 1.23898 240.603 1.78713C241.121 2.32778 241.534 2.95853 241.834 3.67939C242.134 4.40026 242.285 5.17368 242.285 5.99216C242.285 6.80313 242.134 7.57655 241.834 8.30492C241.534 9.03704 241.121 9.67906 240.603 10.2272C240.081 10.7791 239.469 11.2146 238.77 11.5338C238.068 11.8529 237.329 12.0143 236.548 12.0143C235.756 12.0143 235.008 11.8529 234.31 11.5338C233.608 11.2146 232.996 10.7791 232.478 10.2272C231.967 9.67906 231.562 9.03704 231.261 8.30492C230.961 7.57655 230.811 6.80313 230.811 5.99216C230.811 5.17368 230.961 4.40026 231.261 3.67939C231.562 2.95853 231.967 2.32778 232.478 1.78713C232.996 1.23898 233.608 0.80346 234.31 0.480574C235.008 0.161443 235.756 0 236.548 0ZM236.548 9.53639C236.987 9.53639 237.404 9.44628 237.794 9.26607C238.192 9.07834 238.538 8.82304 238.83 8.50015C239.131 8.18102 239.364 7.80557 239.536 7.37381C239.705 6.9458 239.792 6.48399 239.792 5.99216C239.792 5.50407 239.705 5.04227 239.536 4.61051C239.364 4.1825 239.131 3.80705 238.83 3.48416C238.538 3.15377 238.192 2.89846 237.794 2.71825C237.404 2.53052 236.987 2.43291 236.548 2.43291C236.097 2.43291 235.669 2.53052 235.271 2.71825C234.881 2.89846 234.535 3.15377 234.235 3.48416C233.942 3.80705 233.713 4.1825 233.544 4.61051C233.371 5.04227 233.289 5.50407 233.289 5.99216C233.289 6.48399 233.371 6.9458 233.544 7.37381C233.713 7.80557 233.942 8.18102 234.235 8.50015C234.535 8.82304 234.881 9.07834 235.271 9.26607C235.669 9.44628 236.097 9.53639 236.548 9.53639Z" fill="#F46500"/>
</g>
</g>
</g>
<g id="Group_40">
<g id="Group_41">
<g id="Group_42">
<path id="Vector_14" d="M254.507 0.165222H257V11.8041H254.627L249.025 4.20505V11.8041H246.547V0.165222H248.89L254.507 7.80935V0.165222Z" fill="#F46500"/>
</g>
</g>
</g>
<g id="Group_43">
<g id="Group_44">
<g id="Group_45">
<path id="Vector_15" d="M62.1022 22.5119H70.5272V24.7796H67.5537V34.1508H65.0757V24.7796H62.1022V22.5119Z" fill="#03989E"/>
</g>
</g>
</g>
<g id="Group_46">
<g id="Group_47">
<g id="Group_48">
<path id="Vector_16" d="M74.6384 22.5119H81.9221V24.7796H77.1464V26.8821H81.3364V29.1498H77.1464V31.8981H81.9221V34.1508H74.6384V22.5119Z" fill="#03989E"/>
</g>
</g>
</g>
<g id="Group_49">
<g id="Group_50">
<g id="Group_51">
<path id="Vector_17" d="M91.9073 31.8831C92.4367 31.8831 92.9511 31.7629 93.4542 31.5226C93.9535 31.2824 94.4641 30.8769 94.986 30.3062L96.5929 31.838C95.9396 32.6715 95.2 33.3023 94.3703 33.7303C93.548 34.1508 92.7033 34.361 91.8322 34.361C91.04 34.361 90.3004 34.1996 89.6096 33.8805C88.9263 33.5613 88.3331 33.1258 87.8224 32.5739C87.3118 32.0257 86.9101 31.3875 86.621 30.6666C86.3282 29.9382 86.1855 29.1611 86.1855 28.3388C86.1855 27.5204 86.3357 26.7469 86.636 26.0261C86.9364 25.3052 87.3419 24.6745 87.8525 24.1338C88.3706 23.5857 88.9826 23.1501 89.6847 22.8273C90.383 22.5081 91.1264 22.3467 91.9073 22.3467C92.647 22.3467 93.349 22.4894 94.0098 22.7672C94.6706 23.0375 95.3164 23.488 95.9471 24.1188L94.5054 25.8759C94.0436 25.4479 93.6081 25.1625 93.1989 25.0199C92.7859 24.8697 92.3579 24.7946 91.9073 24.7946C91.4643 24.7946 91.0438 24.8922 90.6458 25.0799C90.2441 25.2602 89.8949 25.5117 89.5946 25.8308C89.3017 26.1537 89.0727 26.5292 88.9037 26.9572C88.731 27.389 88.6484 27.8508 88.6484 28.3388C88.6484 28.8307 88.731 29.2925 88.9037 29.7205C89.0727 30.1523 89.3017 30.5277 89.5946 30.8468C89.8949 31.1697 90.2441 31.425 90.6458 31.6127C91.0438 31.793 91.4643 31.8831 91.9073 31.8831Z" fill="#03989E"/>
</g>
</g>
</g>
<g id="Group_52">
<g id="Group_53">
<g id="Group_54">
<path id="Vector_18" d="M108.613 22.5119H111.106V34.1508H108.613V29.1498H103.266V34.1508H100.788V22.5119H103.266V26.8821H108.613V22.5119Z" fill="#03989E"/>
</g>
</g>
</g>
<g id="Group_55">
<g id="Group_56">
<g id="Group_57">
<path id="Vector_19" d="M123.554 22.5119H126.047V34.1508H123.674L118.072 26.5517V34.1508H115.594V22.5119H117.937L123.554 30.156V22.5119Z" fill="#03989E"/>
</g>
</g>
</g>
<g id="Group_58">
<g id="Group_59">
<g id="Group_60">
<path id="Vector_20" d="M136.043 22.3467C136.824 22.3467 137.563 22.5081 138.265 22.8273C138.964 23.1501 139.576 23.5857 140.097 24.1338C140.616 24.6745 141.029 25.3052 141.329 26.0261C141.629 26.7469 141.779 27.5204 141.779 28.3388C141.779 29.1498 141.629 29.9232 141.329 30.6516C141.029 31.3837 140.616 32.0257 140.097 32.5739C139.576 33.1258 138.964 33.5613 138.265 33.8805C137.563 34.1996 136.824 34.361 136.043 34.361C135.25 34.361 134.503 34.1996 133.805 33.8805C133.103 33.5613 132.491 33.1258 131.973 32.5739C131.462 32.0257 131.057 31.3837 130.756 30.6516C130.456 29.9232 130.306 29.1498 130.306 28.3388C130.306 27.5204 130.456 26.7469 130.756 26.0261C131.057 25.3052 131.462 24.6745 131.973 24.1338C132.491 23.5857 133.103 23.1501 133.805 22.8273C134.503 22.5081 135.25 22.3467 136.043 22.3467ZM136.043 31.8831C136.482 31.8831 136.899 31.793 137.289 31.6127C137.687 31.425 138.032 31.1697 138.325 30.8468C138.626 30.5277 138.858 30.1523 139.031 29.7205C139.2 29.2925 139.286 28.8307 139.286 28.3388C139.286 27.8508 139.2 27.389 139.031 26.9572C138.858 26.5292 138.626 26.1537 138.325 25.8308C138.032 25.5004 137.687 25.2451 137.289 25.0649C136.899 24.8772 136.482 24.7796 136.043 24.7796C135.592 24.7796 135.164 24.8772 134.766 25.0649C134.376 25.2451 134.03 25.5004 133.73 25.8308C133.437 26.1537 133.208 26.5292 133.039 26.9572C132.866 27.389 132.784 27.8508 132.784 28.3388C132.784 28.8307 132.866 29.2925 133.039 29.7205C133.208 30.1523 133.437 30.5277 133.73 30.8468C134.03 31.1697 134.376 31.425 134.766 31.6127C135.164 31.793 135.592 31.8831 136.043 31.8831Z" fill="#03989E"/>
</g>
</g>
</g>
<g id="Group_61">
<g id="Group_62">
<g id="Group_63">
<path id="Vector_21" d="M148.55 31.8981H153.326V34.1508H146.042V22.5119H148.55V31.8981Z" fill="#03989E"/>
</g>
</g>
</g>
<g id="Group_64">
<g id="Group_65">
<g id="Group_66">
<path id="Vector_22" d="M162.716 22.3467C163.497 22.3467 164.237 22.5081 164.939 22.8273C165.637 23.1501 166.249 23.5857 166.771 24.1338C167.289 24.6745 167.702 25.3052 168.003 26.0261C168.303 26.7469 168.453 27.5204 168.453 28.3388C168.453 29.1498 168.303 29.9232 168.003 30.6516C167.702 31.3837 167.289 32.0257 166.771 32.5739C166.249 33.1258 165.637 33.5613 164.939 33.8805C164.237 34.1996 163.497 34.361 162.716 34.361C161.924 34.361 161.177 34.1996 160.479 33.8805C159.776 33.5613 159.164 33.1258 158.646 32.5739C158.136 32.0257 157.73 31.3837 157.43 30.6516C157.13 29.9232 156.979 29.1498 156.979 28.3388C156.979 27.5204 157.13 26.7469 157.43 26.0261C157.73 25.3052 158.136 24.6745 158.646 24.1338C159.164 23.5857 159.776 23.1501 160.479 22.8273C161.177 22.5081 161.924 22.3467 162.716 22.3467ZM162.716 31.8831C163.155 31.8831 163.572 31.793 163.963 31.6127C164.361 31.425 164.706 31.1697 164.999 30.8468C165.299 30.5277 165.532 30.1523 165.705 29.7205C165.874 29.2925 165.96 28.8307 165.96 28.3388C165.96 27.8508 165.874 27.389 165.705 26.9572C165.532 26.5292 165.299 26.1537 164.999 25.8308C164.706 25.5004 164.361 25.2451 163.963 25.0649C163.572 24.8772 163.155 24.7796 162.716 24.7796C162.266 24.7796 161.838 24.8772 161.44 25.0649C161.049 25.2451 160.704 25.5004 160.403 25.8308C160.111 26.1537 159.882 26.5292 159.713 26.9572C159.54 27.389 159.457 27.8508 159.457 28.3388C159.457 28.8307 159.54 29.2925 159.713 29.7205C159.882 30.1523 160.111 30.5277 160.403 30.8468C160.704 31.1697 161.049 31.425 161.44 31.6127C161.838 31.793 162.266 31.8831 162.716 31.8831Z" fill="#03989E"/>
</g>
</g>
</g>
<g id="Group_67">
<g id="Group_68">
<g id="Group_69">
<path id="Vector_23" d="M178.483 27.5729H182.883V31.838C182.222 32.6715 181.49 33.3023 180.691 33.7303C179.898 34.1508 179.061 34.361 178.183 34.361C177.402 34.361 176.658 34.1996 175.96 33.8805C175.258 33.5613 174.646 33.1258 174.128 32.5739C173.617 32.0257 173.212 31.3875 172.911 30.6666C172.611 29.9382 172.461 29.1611 172.461 28.3388C172.461 27.5204 172.611 26.7469 172.911 26.0261C173.212 25.3052 173.617 24.6745 174.128 24.1338C174.646 23.5857 175.258 23.1501 175.96 22.8273C176.658 22.5081 177.402 22.3467 178.183 22.3467C178.933 22.3467 179.639 22.4894 180.3 22.7672C180.961 23.0375 181.599 23.488 182.222 24.1188L180.781 25.8759C180.319 25.4479 179.883 25.1625 179.474 25.0199C179.072 24.8697 178.648 24.7946 178.198 24.7946C177.747 24.7946 177.319 24.8922 176.921 25.0799C176.519 25.2602 176.17 25.5117 175.87 25.8308C175.577 26.1537 175.348 26.5292 175.179 26.9572C175.006 27.389 174.924 27.8508 174.924 28.3388C174.924 28.8307 175.006 29.2925 175.179 29.7205C175.348 30.1523 175.577 30.5277 175.87 30.8468C176.17 31.1697 176.519 31.425 176.921 31.6127C177.319 31.793 177.747 31.8831 178.198 31.8831C178.607 31.8831 179.012 31.8155 179.414 31.6728C179.812 31.5226 180.214 31.2786 180.615 30.9369V29.6754H178.483V27.5729Z" fill="#03989E"/>
</g>
</g>
</g>
<g id="Group_70">
<g id="Group_71">
<g id="Group_72">
<path id="Vector_24" d="M194.474 22.5119H197.478L193.318 28.6993V34.1508H190.84V28.6993L186.695 22.5119H189.699L192.086 26.0862L194.474 22.5119Z" fill="#03989E"/>
</g>
</g>
</g>
<path id="Vector_25" d="M17.1882 8.21844H38.0669" stroke="#F46500" stroke-width="4.04643" stroke-linecap="round"/>
<path id="Vector_26" d="M15.1608 8.21837C15.1608 8.61635 15.1232 9.01057 15.0444 9.40103C14.9693 9.78774 14.8529 10.1669 14.699 10.5349C14.545 10.9028 14.3611 11.252 14.1358 11.5824C13.9143 11.9128 13.6627 12.2206 13.3811 12.5022C13.0996 12.7838 12.7917 13.0316 12.4613 13.2531C12.1272 13.4746 11.778 13.6624 11.41 13.8126C11.0384 13.9665 10.6591 14.0791 10.2687 14.158C9.87446 14.2368 9.48024 14.2744 9.08227 14.2744C8.68053 14.2744 8.28631 14.2368 7.89585 14.158C7.50163 14.0791 7.12243 13.9665 6.75448 13.8126C6.38279 13.6624 6.03362 13.4746 5.70323 13.2531C5.36908 13.0316 5.06121 12.7838 4.77963 12.5022C4.49804 12.2206 4.24649 11.9128 4.02497 11.5824C3.80346 11.252 3.61574 10.9028 3.4618 10.5349C3.30787 10.1669 3.19523 9.78774 3.11639 9.40103C3.03755 9.01057 3 8.61635 3 8.21837C3 7.82039 3.03755 7.42617 3.11639 7.03571C3.19523 6.64524 3.30787 6.26604 3.4618 5.8981C3.61574 5.53016 3.80346 5.18475 4.02497 4.8506C4.24649 4.5202 4.49804 4.21609 4.77963 3.9345C5.06121 3.65292 5.36908 3.40137 5.70323 3.17985C6.03362 2.95834 6.38279 2.77437 6.75448 2.62044C7.12243 2.47026 7.50163 2.35386 7.89585 2.27502C8.28631 2.19993 8.68053 2.15863 9.08227 2.15863C9.48024 2.15863 9.87446 2.19993 10.2687 2.27502C10.6591 2.35386 11.0384 2.47026 11.41 2.62044C11.778 2.77437 12.1272 2.95834 12.4613 3.17985C12.7917 3.40137 13.0996 3.65292 13.3811 3.9345C13.6627 4.21609 13.9143 4.5202 14.1358 4.8506C14.3611 5.18475 14.545 5.53016 14.699 5.8981C14.8529 6.26604 14.9693 6.64524 15.0444 7.03571C15.1232 7.42617 15.1608 7.82039 15.1608 8.21837Z" fill="#F46500" stroke="#F46500" stroke-width="4.04643"/>
<path id="Vector_27" d="M52.2588 8.21837C52.2588 8.61635 52.2175 9.01057 52.1424 9.40103C52.0635 9.78774 51.9471 10.1669 51.797 10.5349C51.643 10.9028 51.4553 11.252 51.2338 11.5824C51.0123 11.9128 50.7607 12.2206 50.4754 12.5022C50.1938 12.7838 49.8859 13.0316 49.5555 13.2531C49.2214 13.4746 48.8722 13.6624 48.5043 13.8126C48.1363 13.9665 47.7534 14.0791 47.3629 14.158C46.9725 14.2368 46.5745 14.2744 46.1765 14.2744C45.7785 14.2744 45.3806 14.2368 44.9901 14.158C44.5996 14.0791 44.2167 13.9665 43.8487 13.8126C43.4808 13.6624 43.1279 13.4746 42.7975 13.2531C42.4671 13.0316 42.1592 12.7838 41.8776 12.5022C41.5923 12.2206 41.3407 11.9128 41.1192 11.5824C40.8977 11.252 40.71 10.9028 40.556 10.5349C40.4059 10.1669 40.2895 9.78774 40.2106 9.40103C40.1318 9.01057 40.0942 8.61635 40.0942 8.21837C40.0942 7.82039 40.1318 7.42617 40.2106 7.03571C40.2895 6.64524 40.4059 6.26604 40.556 5.8981C40.71 5.53016 40.8977 5.18475 41.1192 4.8506C41.3407 4.5202 41.5923 4.21609 41.8776 3.9345C42.1592 3.65292 42.4671 3.40137 42.7975 3.17985C43.1279 2.95834 43.4808 2.77437 43.8487 2.62044C44.2167 2.47026 44.5996 2.35386 44.9901 2.27502C45.3806 2.19993 45.7785 2.15863 46.1765 2.15863C46.5745 2.15863 46.9725 2.19993 47.3629 2.27502C47.7534 2.35386 48.1363 2.47026 48.5043 2.62044C48.8722 2.77437 49.2214 2.95834 49.5555 3.17985C49.8859 3.40137 50.1938 3.65292 50.4754 3.9345C50.7607 4.21609 51.0123 4.5202 51.2338 4.8506C51.4553 5.18475 51.643 5.53016 51.797 5.8981C51.9471 6.26604 52.0635 6.64524 52.1424 7.03571C52.2175 7.42617 52.2588 7.82039 52.2588 8.21837Z" fill="#F46500" stroke="#F46500" stroke-width="4.04643"/>
<path id="Vector_28" d="M17.1882 30.1446H38.0669" stroke="#03989E" stroke-width="4.04643" stroke-linecap="round"/>
<path id="Vector_29" d="M15.1608 30.1446C15.1608 30.5426 15.1232 30.9368 15.0444 31.3273C14.9693 31.7177 14.8529 32.0969 14.699 32.4649C14.545 32.8291 14.3611 33.1782 14.1358 33.5124C13.9143 33.8428 13.6627 34.1469 13.3811 34.4285C13.0996 34.7101 12.7917 34.9616 12.4613 35.1831C12.1272 35.4046 11.778 35.5886 11.41 35.7425C11.0384 35.8927 10.6591 36.0091 10.2687 36.088C9.87446 36.163 9.48024 36.2043 9.08227 36.2043C8.68053 36.2043 8.28631 36.163 7.89585 36.088C7.50163 36.0091 7.12243 35.8927 6.75448 35.7425C6.38279 35.5886 6.03362 35.4046 5.70323 35.1831C5.36908 34.9616 5.06121 34.7101 4.77963 34.4285C4.49804 34.1469 4.24649 33.8428 4.02497 33.5124C3.80346 33.1782 3.61574 32.8291 3.4618 32.4649C3.30787 32.0969 3.19523 31.7177 3.11639 31.3273C3.03755 30.9368 3 30.5426 3 30.1446C3 29.7466 3.03755 29.3524 3.11639 28.9619C3.19523 28.5752 3.30787 28.196 3.4618 27.8281C3.61574 27.4601 3.80346 27.111 4.02497 26.7806C4.24649 26.4502 4.49804 26.1423 4.77963 25.8607C5.06121 25.5792 5.36908 25.3314 5.70323 25.1098C6.03362 24.8883 6.38279 24.7006 6.75448 24.5504C7.12243 24.3965 7.50163 24.2801 7.89585 24.205C8.28631 24.1262 8.68053 24.0886 9.08227 24.0886C9.48024 24.0886 9.87446 24.1262 10.2687 24.205C10.6591 24.2801 11.0384 24.3965 11.41 24.5504C11.778 24.7006 12.1272 24.8883 12.4613 25.1098C12.7917 25.3314 13.0996 25.5792 13.3811 25.8607C13.6627 26.1423 13.9143 26.4502 14.1358 26.7806C14.3611 27.111 14.545 27.4601 14.699 27.8281C14.8529 28.196 14.9693 28.5752 15.0444 28.9619C15.1232 29.3524 15.1608 29.7466 15.1608 30.1446Z" fill="#03989E" stroke="#03989E" stroke-width="4.04643"/>
<path id="Vector_30" d="M52.2588 30.1446C52.2588 30.5426 52.2175 30.9368 52.1424 31.3273C52.0635 31.7177 51.9471 32.0969 51.797 32.4649C51.643 32.8291 51.4553 33.1782 51.2338 33.5124C51.0123 33.8428 50.7607 34.1469 50.4754 34.4285C50.1938 34.7101 49.8859 34.9616 49.5555 35.1831C49.2214 35.4046 48.8722 35.5886 48.5043 35.7425C48.1363 35.8927 47.7534 36.0091 47.3629 36.088C46.9725 36.163 46.5745 36.2043 46.1765 36.2043C45.7785 36.2043 45.3806 36.163 44.9901 36.088C44.5996 36.0091 44.2167 35.8927 43.8487 35.7425C43.4808 35.5886 43.1279 35.4046 42.7975 35.1831C42.4671 34.9616 42.1592 34.7101 41.8776 34.4285C41.5923 34.1469 41.3407 33.8428 41.1192 33.5124C40.8977 33.1782 40.71 32.8291 40.556 32.4649C40.4059 32.0969 40.2895 31.7177 40.2106 31.3273C40.1318 30.9368 40.0942 30.5426 40.0942 30.1446C40.0942 29.7466 40.1318 29.3524 40.2106 28.9619C40.2895 28.5752 40.4059 28.196 40.556 27.8281C40.71 27.4601 40.8977 27.111 41.1192 26.7806C41.3407 26.4502 41.5923 26.1423 41.8776 25.8607C42.1592 25.5792 42.4671 25.3314 42.7975 25.1098C43.1279 24.8883 43.4808 24.7006 43.8487 24.5504C44.2167 24.3965 44.5996 24.2801 44.9901 24.205C45.3806 24.1262 45.7785 24.0886 46.1765 24.0886C46.5745 24.0886 46.9725 24.1262 47.3629 24.205C47.7534 24.2801 48.1363 24.3965 48.5043 24.5504C48.8722 24.7006 49.2214 24.8883 49.5555 25.1098C49.8859 25.3314 50.1938 25.5792 50.4754 25.8607C50.7607 26.1423 51.0123 26.4502 51.2338 26.7806C51.4553 27.111 51.643 27.4601 51.797 27.8281C51.9471 28.196 52.0635 28.5752 52.1424 28.9619C52.2175 29.3524 52.2588 29.7466 52.2588 30.1446Z" fill="#03989E" stroke="#03989E" stroke-width="4.04643"/>
</g>
</svg>
