<svg width="92" height="91" viewBox="0 0 92 91" fill="none" xmlns="http://www.w3.org/2000/svg">
<path id="Vector" d="M79.8907 45.2388C79.8907 47.4606 79.6811 49.6614 79.2409 51.8413C78.8217 54.0212 78.1719 56.1382 77.3126 58.1923C76.4532 60.2255 75.4261 62.1748 74.1685 64.0403C72.9319 65.8848 71.5275 67.5826 69.9555 69.1546C68.3834 70.7266 66.6647 72.131 64.8202 73.3676C62.9547 74.6043 61.0054 75.6314 58.9513 76.4907C56.8762 77.3292 54.7592 77.9789 52.5793 78.4191C50.3785 78.8383 48.1776 79.0689 45.9558 79.0689C43.7131 79.0689 41.5122 78.8383 39.3323 78.4191C37.1315 77.9789 35.0145 77.3292 32.9604 76.4907C30.8853 75.6314 28.936 74.6043 27.0915 73.3676C25.226 72.131 23.5072 70.7266 21.9352 69.1546C20.3632 67.5826 18.9588 65.8848 17.7222 64.0403C16.4855 62.1748 15.4375 60.2255 14.5781 58.1923C13.7188 56.1382 13.0899 54.0212 12.6498 51.8413C12.2096 49.6614 12 47.4606 12 45.2388C12 43.017 12.2096 40.8161 12.6498 38.6363C13.0899 36.4773 13.7188 34.3603 14.5781 32.3062C15.4375 30.2521 16.4855 28.3028 17.7222 26.4583C18.9588 24.6138 20.3632 22.895 21.9352 21.323C23.5072 19.751 25.226 18.3676 27.0915 17.1309C28.936 15.8942 30.8853 14.8462 32.9604 14.0078C35.0145 13.1485 37.1315 12.4987 39.3323 12.0795C41.5122 11.6393 43.7131 11.4297 45.9558 11.4297C48.1776 11.4297 50.3785 11.6393 52.5793 12.0795C54.7592 12.4987 56.8762 13.1485 58.9513 14.0078C61.0054 14.8462 62.9547 15.8942 64.8202 17.1309C66.6647 18.3676 68.3834 19.751 69.9555 21.323C71.5275 22.895 72.9319 24.6138 74.1685 26.4583C75.4261 28.3028 76.4532 30.2521 77.3126 32.3062C78.1719 34.3603 78.8217 36.4773 79.2409 38.6363C79.6811 40.8161 79.8907 43.017 79.8907 45.2388Z" fill="black" stroke="black" stroke-width="22.5902"/>
</svg>
