<svg width="50" height="50" viewBox="0 0 50 50" fill="none" xmlns="http://www.w3.org/2000/svg">
<g id="Vision icon">
<path id="Vector" d="M0 22.0703V25.1953C12.5 43.9453 37.5 43.9453 50 25.1953V22.0703C37.5 3.32031 12.5 3.32031 0 22.0703ZM25 36.1328C18.0957 36.1328 12.5 30.5371 12.5 23.6328C12.5 16.7285 18.0957 11.1328 25 11.1328C31.9043 11.1328 37.5 16.7285 37.5 23.6328C37.5 30.5371 31.9043 36.1328 25 36.1328ZM25 16.6016C25 15.791 25.166 15.0293 25.4199 14.2969C25.2734 14.2871 25.1465 14.2578 25 14.2578C19.8242 14.2578 15.625 18.457 15.625 23.6328C15.625 28.8086 19.8242 33.0078 25 33.0078C30.1758 33.0078 34.375 28.8086 34.375 23.6328C34.375 23.4863 34.3359 23.3594 34.3359 23.2129C33.6133 23.4668 32.8418 23.6328 32.0312 23.6328C28.1445 23.6328 25 20.4883 25 16.6016Z" fill="white"/>
</g>
</svg>
